<?xml version="1.0" encoding="utf-8"?>
<!-- Generator: Adobe Illustrator 14.0.0, SVG Export Plug-In . SVG Version: 6.00 Build 43363)  -->
<!DOCTYPE svg PUBLIC "-//W3C//DTD SVG 1.1//EN" "http://www.w3.org/Graphics/SVG/1.1/DTD/svg11.dtd">
<svg version="1.1" id="Calque_1" xmlns="http://www.w3.org/2000/svg" xmlns:xlink="http://www.w3.org/1999/xlink" x="0px" y="0px"
	 width="163.334px" height="199px" viewBox="-1.667 1.333 163.334 199" enable-background="new -1.667 1.333 163.334 199"
	 xml:space="preserve">
<g>
	<g>
		<path fill="#FFFFFF" d="M476.171-259.653c-6.527,5.355-9.26,13.246-13.727,20.154c-4.061,6.272-9.855,10.982-7.518,19.264
			c1.146,4.059,8.688,8.127,11.91,10.449c5.461,3.928,11.369,7.579,17.844,9.543c3.658,1.109,7.582,1.233,10.975-0.677
			c4.145-2.338,6.135-8.476,3.418-12.44c-3.986-5.816-12.604-7.101-15.754-14.001c-1.971-4.301,4.516-10.343,6.938-13.38
			c3.127-3.921,6.189-7.857,8.576-12.282c0.039-0.072-0.047-0.121-0.092-0.147c-6.365-3.714-12.521-7.812-19.066-11.211
			c-0.246-0.128-0.746,0.046-0.869,0.286c-0.82,1.613-1.438,3.168-2.697,4.505c-0.258,0.273,0.699,0.189,0.891-0.013
			c0.801-0.85,1.312-1.549,1.797-2.581c0.916-1.943,1.805-0.872,3.355-0.007c4.252,2.377,8.373,4.99,12.539,7.512
			c2.037,1.234,3.602,1.22,1.658,4.478c-1.424,2.393-3.166,4.604-4.863,6.804c-2.65,3.43-6.1,6.785-8.08,10.669
			c-3.307,6.471,2.346,10.564,7.379,14.103c2.555,1.798,5.322,3.229,7.393,5.626c2.986,3.46,0.412,8.89-2.518,11.436
			c-5.932,5.154-16.908-1.559-22.225-4.788c-5.035-3.062-9.729-6.694-14.287-10.42c-7.477-6.105-2.229-14.43,2.531-20.426
			c5.689-7.165,7.986-16.379,15.256-22.343C477.347-259.881,476.382-259.826,476.171-259.653L476.171-259.653z"/>
	</g>
</g>
<path fill="#E1FFFE" d="M458.207-232.527c0,0-3.959,5.606-3.268,9.787c0.404,2.445,1.279,4.703,5.748,7.339"/>
<g>
	<path fill="#E1FFFE" d="M458.16-232.731c2.711,0.858,6.43,3.342,8.016,5.411c2.541,3.314,0.646,6.201-1.398,8.08
		c-1.359,1.231-3.104,2.574-4.154,4.015"/>
	<g>
		<path fill="#FFFFFF" d="M457.966-232.621c3.623,1.312,7.631,3.728,9.051,7.506c1.512,4.021-4.467,7.292-6.623,9.891
			c-0.127,0.153,0.355,0.108,0.447-0.002c2.607-3.143,7.299-5.295,6.658-10.019c-0.5-3.69-6.084-6.488-9.146-7.597
			C458.218-232.891,457.779-232.688,457.966-232.621L457.966-232.621z"/>
	</g>
</g>
<g>
	<g>
		<path fill="#FFFFFF" d="M471.722-254.466c6.713,2.418,13.258,7.032,19.129,11.034c0.465,0.316,2.125-0.46,1.816-0.67
			c-5.959-4.062-12.549-8.681-19.363-11.136C472.853-255.4,471.115-254.686,471.722-254.466L471.722-254.466z"/>
	</g>
</g>
<g>
	<g>
		<path fill="#FFFFFF" d="M482.902-261.989c-1.4,1.183-1.898,3.046-2.82,4.573c-0.873,1.446-2.096,2.656-2.965,4.104
			c-0.125,0.211,0.363,0.181,0.455,0.028c0.766-1.277,1.777-2.404,2.643-3.614c1.133-1.588,1.553-3.697,3.082-4.987
			C483.517-262.07,483.039-262.103,482.902-261.989L482.902-261.989z"/>
	</g>
</g>
<g>
	<g>
		<path fill="#FFFFFF" d="M486.916-259.305c-1.418,1.16-2.068,2.889-3.148,4.322c-0.943,1.262-2.055,2.411-2.896,3.749
			c-0.111,0.179,0.369,0.12,0.447-0.002c0.785-1.249,1.795-2.358,2.715-3.511c1.16-1.454,1.803-3.295,3.27-4.496
			C487.507-259.414,487.025-259.394,486.916-259.305L486.916-259.305z"/>
	</g>
</g>
<g>
	<g>
		<path fill="#FFFFFF" d="M491.748-256.734c-1.312,0.541-2.051,2.331-2.725,3.479c-0.992,1.687-2.846,2.721-3.689,4.485
			c-0.123,0.256,0.365,0.271,0.465,0.066c0.754-1.575,2.404-2.493,3.355-3.934c0.764-1.16,1.441-3.226,2.812-3.792
			C492.271-256.555,492.001-256.839,491.748-256.734L491.748-256.734z"/>
	</g>
</g>
<g>
	<g>
		<path fill="#FFFFFF" d="M495.21-254.477c-0.967,3.337-4.297,5.418-6.104,8.263c-0.105,0.168,0.367,0.102,0.439-0.012
			c1.82-2.867,5.164-4.957,6.145-8.324C495.73-254.69,495.251-254.62,495.21-254.477L495.21-254.477z"/>
	</g>
</g>
<g>
	<g>
		<path fill="#FFFFFF" d="M524.4-228.016c7.354-8.125,18.785-9.749,29.15-8.015c6.564,1.098,13.209,4.784,19.189,7.723
			c11.199,5.504,22.156,10.084,34.748,10.966c13.568,0.95,26.838-3.114,38.744-9.35c1.158-0.609,0.115-1.755-0.887-1.23
			c-14.945,7.83-30.926,11.096-47.598,7.658c-10.52-2.17-19.582-7.71-29.305-11.911c-7.041-3.042-13.123-5.689-20.832-5.979
			c-9.268-0.348-18.533,2.521-24.852,9.501C521.935-227.736,523.775-227.325,524.4-228.016L524.4-228.016z"/>
	</g>
</g>
<text transform="matrix(1 0 0 1 -1.667 190.6655)" fill="#8B41B3" font-family="'Lato-Regular'" font-size="250">C</text>
<text transform="matrix(1 0 0 1 -1.667 190.6655)" fill="#FDF5FF" stroke="#FDF5FF" font-family="'Lato-Regular'" font-size="250">C</text>
<ellipse fill="#FDF5FF" stroke="#FDF5FF" cx="75.838" cy="105.474" rx="17.255" ry="17.308"/>
<g>
	<g>
		<path fill="#FDF5FF" stroke="#FDF5FF" d="M67.617,121.927c4.519,15.929,18.901,23.892,34.882,23.131
			c16.148-0.77,27.303-12.094,32.551-26.661c0.384-1.065-1.553-1.073-1.854-0.239c-5.079,14.104-15.094,24.193-30.536,25.447
			c-15.207,1.234-28.915-7.404-33.111-22.195C69.289,120.494,67.358,121.015,67.617,121.927L67.617,121.927z"/>
	</g>
</g>
<g>
	<g>
		<path fill="#FDF5FF" stroke="#FDF5FF" d="M78.441,138.232c7.254,7.521,20.828-4.131,20.555-12.462
			c-0.031-0.905-1.968-0.522-1.941,0.201c0.224,6.778-10.592,17.932-16.827,11.464C79.696,136.889,77.859,137.628,78.441,138.232
			L78.441,138.232z"/>
	</g>
</g>
</svg>
