<?xml version="1.0" encoding="utf-8"?>
<!-- Generator: Adobe Illustrator 14.0.0, SVG Export Plug-In . SVG Version: 6.00 Build 43363)  -->
<!DOCTYPE svg PUBLIC "-//W3C//DTD SVG 1.1//EN" "http://www.w3.org/Graphics/SVG/1.1/DTD/svg11.dtd">
<svg version="1.1" id="Calque_1" xmlns="http://www.w3.org/2000/svg" xmlns:xlink="http://www.w3.org/1999/xlink" x="0px" y="0px"
	 width="119.876px" height="24px" viewBox="0 0 119.876 24" enable-background="new 0 0 119.876 24" xml:space="preserve">
<path fill="#FFFBEE" stroke="#AF1CF4" d="M-795.5-36.179c0,55.232-44.764,100-100,100c-55.236,0-100-44.768-100-100
	c0-55.231,44.764-100,100-100C-840.264-136.179-795.5-91.41-795.5-36.179z"/>
<g id="Calque_2">
	<path fill="#FFFFFF" d="M-978.333-90.5c7.275-11.432,13.5-17.166,13.5-17.166s31.557,2.363,36.167,18.499
		C-923.333-70.5-937.5-60-937.5-60s39.167-14.166,72.333,22.001c17.371,18.942,17.167,24.333,20.333,38.5
		c1.829,8.185,1.042,14.055-0.167,24.333c-1.667,14.167-1.212,22.302-15.667,31.5c-5.5,3.5-22.333,8.5-43.833,6.167
		c-20.185-2.19-40.699-9.521-56.833-25.332c-32.075-31.432-34.833-62-32.167-84.167C-992.214-57.691-990-72.166-978.333-90.5z"/>
</g>
<g>
	<g>
		<path fill="#9F27F4" d="M-964.451-108.069c13.987,1.792,32.832,6.661,36.071,22.797c2.006,9.999-3.877,20.959-11.87,26.707
			c-0.822,0.591,1.121,0.402,1.499,0.131c8.255-5.937,13.768-16.402,12.416-26.667c-2.221-16.877-22.966-22.046-36.883-23.83
			C-963.683-108.991-965.46-108.199-964.451-108.069L-964.451-108.069z"/>
	</g>
</g>
<g>
	<g>
		<path fill="#A500E2" d="M-940.825-57.848c15.839-5.273,32.266-5.28,47.823,0.961c15.426,6.188,27.865,18.229,37.266,31.663
			c8.949,12.787,11.604,27.463,10.616,42.877c-0.854,13.309-4.648,28.621-14.687,38.07c-0.875,0.823,1.002,1.131,1.613,0.555
			c10.317-9.711,13.949-25.168,15.029-38.778c1.244-15.672-1.947-30.546-10.801-43.569c-9.449-13.897-22.376-25.512-37.917-32.104
			c-15.734-6.674-33.253-6.316-49.292-0.977C-942.332-58.767-942.004-57.456-940.825-57.848L-940.825-57.848z"/>
	</g>
</g>
<g>
	<path fill="#8B41B3" d="M-895.929-2.109C-884-13.667-875,0.875-888.938,13.5c-1.841,1.668-3.5,3.75-4.488,6.672"/>
	<g>
		<path fill="#8B41B3" d="M-895.541-2.026c3.069-2.799,7.828-5.933,11.523-2.355c2.09,2.023,1.804,5.499,1.214,8.031
			c-1.598,6.852-8.593,10.191-11.106,16.581c-0.127,0.323,0.839,0.206,0.967-0.117c2.617-6.656,16.01-14.894,10.657-23.677
			c-3.518-5.772-10.302-2.032-14.032,1.371C-896.734-1.812-895.777-1.81-895.541-2.026L-895.541-2.026z"/>
	</g>
</g>
<g>
	<path fill="#8B41B3" d="M-895.516-2.22C-905.667-13.667-915.5,4-902,13.375c3.962,2.751,6.875,2,9.017,6.849"/>
	<g>
		<path fill="#8B41B3" d="M-895.065-2.402c-4.193-4.421-10.528-5.495-13.34,0.917c-1.6,3.649-0.276,7.863,1.786,10.997
			c3.395,5.161,10.395,5.4,13.153,10.842c0.156,0.307,1.09-0.015,0.966-0.26c-1.224-2.415-2.744-3.79-5.192-4.89
			c-4.176-1.876-7.503-4.406-9.463-8.633c-1.19-2.567-1.19-5.554-0.287-8.192c2.006-5.857,8.182-3.892,11.477-0.417
			C-895.752-1.812-894.837-2.162-895.065-2.402L-895.065-2.402z"/>
	</g>
</g>
<path fill="#FFFBEE" stroke="#AF1CF4" stroke-width="0.5" d="M-510-43.345c0,55.232-44.764,100-100,100s-100-44.768-100-100
	c0-55.231,44.764-100,100-100S-510-98.576-510-43.345z"/>
<g>
	<path fill="#DFD0EF" d="M-617.28-69.263c-7.154,5.472-9.37,14.281-14.49,21.273c-2.639,3.82-6.697,7.126-6.925,11.614
		c-0.274,5.419-0.51,7.077,3.556,10.118c7.729,6.327,31.979,25.619,39.64,12.382c5.423-9.663-3.858-11.443-9.801-16.653
		c-5.048-4.651-8.419-6.666-3.701-13.413c4.16-5.853,10.257-12.268,13.521-18.68c-5.115-2.952-13.872-8.583-19.065-11.211
		C-615.743-71.72-615.515-70.894-617.28-69.263"/>
	<g>
		<path fill="#AF1CF4" d="M-617.661-69.319c-6.527,5.355-9.26,13.246-13.727,20.154c-4.056,6.273-9.854,10.981-7.513,19.264
			c1.146,4.059,8.682,8.127,11.909,10.448c5.462,3.928,11.37,7.58,17.845,9.543c3.658,1.109,7.581,1.233,10.97-0.676
			c4.149-2.338,6.135-8.477,3.418-12.44c-3.987-5.817-12.6-7.102-15.754-14.002c-1.966-4.301,4.515-10.343,6.938-13.379
			c3.127-3.921,6.188-7.857,8.575-12.282c0.039-0.072-0.046-0.121-0.092-0.147c-6.365-3.714-12.521-7.812-19.065-11.211
			c-0.246-0.128-0.747,0.046-0.869,0.286c-0.821,1.613-1.438,3.168-2.699,4.505c-0.258,0.273,0.7,0.189,0.891-0.013
			c0.801-0.85,1.313-1.549,1.799-2.581c0.914-1.943,1.804-0.872,3.351-0.007c4.252,2.377,8.374,4.99,12.54,7.512
			c2.039,1.234,3.602,1.22,1.661,4.478c-1.425,2.393-3.167,4.604-4.866,6.803c-2.652,3.43-6.097,6.786-8.08,10.669
			c-3.305,6.471,2.346,10.564,7.378,14.103c2.556,1.797,5.323,3.229,7.393,5.626c2.986,3.46,0.412,8.89-2.517,11.436
			c-5.93,5.153-16.908-1.559-22.223-4.789c-5.038-3.062-9.729-6.693-14.289-10.418c-7.475-6.105-2.227-14.431,2.534-20.427
			c5.688-7.164,7.986-16.379,15.255-22.343C-616.485-69.547-617.451-69.492-617.661-69.319L-617.661-69.319z"/>
	</g>
</g>
<path fill="#E1FFFE" d="M-635.626-42.193c0,0-3.96,5.606-3.268,9.788c0.405,2.445,1.28,4.702,5.749,7.338"/>
<g>
	<path fill="#E1FFFE" d="M-635.673-42.397c2.711,0.859,6.429,3.342,8.015,5.411c2.542,3.315,0.645,6.201-1.402,8.081
		c-1.359,1.231-3.099,2.574-4.155,4.015"/>
	<g>
		<path fill="#AF1CF4" d="M-635.867-42.287c3.623,1.312,7.632,3.727,9.052,7.505c1.511,4.021-4.467,7.292-6.624,9.891
			c-0.127,0.154,0.355,0.108,0.447-0.002c2.607-3.142,7.3-5.295,6.659-10.019c-0.5-3.691-6.084-6.488-9.146-7.597
			C-635.614-42.557-636.054-42.354-635.867-42.287L-635.867-42.287z"/>
	</g>
</g>
<g>
	<g>
		<path fill="#AF1CF4" d="M-622.115-64.147c6.712,2.418,13.262,7.04,19.131,11.041c0.447,0.305,2.082-0.476,1.82-0.654
			c-5.96-4.063-12.545-8.673-19.361-11.129C-620.953-65.043-622.68-64.351-622.115-64.147L-622.115-64.147z"/>
	</g>
</g>
<g>
	<g>
		<path fill="#AF1CF4" d="M-610.931-71.655c-1.401,1.183-1.899,3.046-2.821,4.573c-0.873,1.446-2.095,2.656-2.964,4.104
			c-0.126,0.211,0.363,0.181,0.455,0.028c0.765-1.277,1.777-2.404,2.642-3.614c1.134-1.588,1.554-3.697,3.083-4.987
			C-610.316-71.736-610.795-71.769-610.931-71.655L-610.931-71.655z"/>
	</g>
</g>
<g>
	<g>
		<path fill="#AF1CF4" d="M-606.918-68.971c-1.417,1.16-2.068,2.889-3.147,4.322c-0.949,1.262-2.055,2.411-2.901,3.749
			c-0.112,0.179,0.369,0.12,0.447-0.002c0.789-1.249,1.795-2.358,2.715-3.511c1.161-1.454,1.803-3.295,3.27-4.496
			C-606.325-69.08-606.809-69.06-606.918-68.971L-606.918-68.971z"/>
	</g>
</g>
<g>
	<g>
		<path fill="#AF1CF4" d="M-602.086-66.4c-1.31,0.541-2.051,2.331-2.725,3.479c-0.991,1.687-2.845,2.721-3.689,4.485
			c-0.122,0.256,0.366,0.271,0.465,0.065c0.754-1.575,2.404-2.492,3.354-3.933c0.764-1.16,1.444-3.226,2.814-3.792
			C-601.562-66.221-601.831-66.505-602.086-66.4L-602.086-66.4z"/>
	</g>
</g>
<g>
	<g>
		<path fill="#AF1CF4" d="M-598.623-64.143c-0.967,3.337-4.297,5.419-6.103,8.263c-0.106,0.168,0.371,0.102,0.443-0.012
			c1.82-2.867,5.164-4.957,6.14-8.324C-598.103-64.356-598.581-64.286-598.623-64.143L-598.623-64.143z"/>
	</g>
</g>
<g>
	<g>
		<path fill="#AF1CF4" d="M-596.243-62.13c6.087,2.384,15.822,4.371,21.52-0.106c8.185-6.432,9.28-18.725,4.915-27.47
			c-10.564-21.163-39.86-24.737-60.146-17.795c-19.862,6.796-37.273,24.656-44.29,44.307c-7.114,19.922-4.642,46.823,10.193,62.647
			c11.595,12.368,28.329,19.653,45.463,18.941c15.621-0.649,34.72-3.844,45.161-16.684c0.572-0.704-1.389-0.605-1.811-0.086
			c-7.649,9.406-20.376,12.833-31.876,14.583c-9.771,1.487-19.044,1.33-28.609-1.355c-11.431-3.208-20.003-9.015-27.919-17.668
			c-7.538-8.24-10.13-18.726-11.582-29.551c-3.626-27.026,9.349-51.203,31.182-66.58c13.123-9.242,28.708-12.391,44.418-9.393
			c12.75,2.433,24.289,9.611,29.122,22.054c2.838,7.307,1.021,13.543-2.793,20.048c-4.361,7.438-14.521,5.831-21.422,3.127
			C-595.342-63.354-597.091-62.462-596.243-62.13L-596.243-62.13z"/>
	</g>
</g>
<path fill="#FFFBEE" stroke="#AF1CF4" stroke-width="0.5" d="M-242-38.345c0,55.232-44.764,100-100,100s-100-44.768-100-100
	c0-55.231,44.764-100,100-100S-242-93.576-242-38.345z"/>
<circle fill="#F3E1FF" stroke="#AF1CF4" cx="-398.5" cy="-85.75" r="14"/>
<circle fill="#F3E1FF" stroke="#AF1CF4" cx="-341.25" cy="27.5" r="14"/>
<circle fill="#F3E1FF" stroke="#AF1CF4" cx="-285" cy="-86" r="14"/>
<ellipse fill="#F3E1FF" stroke="#AF1CF4" cx="-380.625" cy="-55.875" rx="7.625" ry="7.375"/>
<ellipse fill="#F3E1FF" stroke="#AF1CF4" cx="-302.625" cy="-55.375" rx="7.625" ry="7.375"/>
<ellipse fill="#F3E1FF" stroke="#AF1CF4" cx="-342.125" cy="-6.875" rx="7.625" ry="7.375"/>
<g>
	<g>
		<path fill="#AF1CF4" d="M-405.466-66.741c-1.293,14.896,4.911,31.098,19.429,37.138c0.455,0.189,2.216-0.527,1.574-0.794
			c-14.354-5.972-20.343-22.214-19.071-36.862C-403.505-67.598-405.412-67.365-405.466-66.741L-405.466-66.741z"/>
	</g>
</g>
<g>
	<g>
		<path fill="#AF1CF4" d="M-305.124-81.058c-19.788,2.723-29.956,21.062-34.094,38.923c-0.175,0.755,1.777,0.455,1.936-0.229
			c3.866-16.69,13.133-34.994,31.906-37.577C-304.427-80.072-303.79-81.242-305.124-81.058L-305.124-81.058z"/>
	</g>
</g>
<g>
	<g>
		<path fill="#AF1CF4" d="M-278.466-69.491c6.475,14.955,1.789,35.5-13.915,42.597c-1.228,0.554-0.101,1.178,0.762,0.788
			c16.276-7.355,21.932-28.087,15.085-43.903C-276.825-70.68-278.723-70.084-278.466-69.491L-278.466-69.491z"/>
	</g>
</g>
<g>
	<g>
		<path fill="#AF1CF4" d="M-323.62,20.984c8.978-2.769,11.46-12.778,11.829-21.183c0.54-12.323-7.562-20.416-16.062-28.18
			c-0.505-0.461-2.318,0.277-1.793,0.757c7.13,6.514,14.38,13.273,15.757,23.298c1.106,8.049-1.028,21.576-9.99,24.339
			C-325.019,20.367-324.774,21.34-323.62,20.984L-323.62,20.984z"/>
	</g>
</g>
<g>
	<g>
		<path fill="#AF1CF4" d="M-356.112,20.588c-5.42-5.102-9.483-10.95-10.858-18.374c-1.471-7.945,1.446-16.111,4.888-23.129
			c0.466-0.951-1.486-0.878-1.834-0.17c-3.19,6.506-5.903,13.816-5.273,21.197c0.736,8.625,5.096,15.458,11.303,21.3
			C-357.293,21.972-355.467,21.195-356.112,20.588L-356.112,20.588z"/>
	</g>
</g>
<g>
	<g>
		<path fill="#AF1CF4" d="M-381.376-83.314c7.98-1.988,17.96,3.85,21.55,10.795c3.999,7.736,5.855,15.605,6.11,24.278
			c0.018,0.586,1.953,0.21,1.932-0.518c-0.285-9.71-2.375-22.319-9.748-29.377c-4.883-4.674-13.405-7.774-20.092-6.107
			C-382.789-83.953-382.532-83.026-381.376-83.314L-381.376-83.314z"/>
	</g>
</g>
<rect x="-20.5" y="-36.25" display="none" fill="#2E3192" stroke="#FFFFFF" stroke-width="0.5" width="429.001" height="154.5"/>
<g>
	<g>
		<path fill="#FFFFFF" d="M59.228,3.521c-2.146,1.77-3.168,4.246-4.767,6.462c-1.345,1.864-2.895,3.141-2.127,5.629
			c0.385,1.247,3.243,2.641,4.258,3.307c1.807,1.184,3.739,2.184,5.839,2.716c2.382,0.604,4.495-0.501,4.878-3.008
			c0.242-1.585-2.793-2.766-3.751-3.458c-3.941-2.851,1.522-6.913,3.206-9.615c0.03-0.049,0.021-0.078-0.028-0.105
			c-2.075-1.132-4.108-2.341-6.229-3.389c-0.124-0.062-0.373,0.021-0.435,0.143c-0.292,0.45-0.584,0.899-0.876,1.35
			c-0.123,0.151,0.357,0.102,0.445-0.007c1.281-1.577,2.601-0.17,4.086,0.662c0.67,0.375,2.803,1.014,1.988,2.321
			c-0.851,1.365-2.048,2.562-3.089,3.78c-3.013,3.526,0.193,4.778,3.198,6.825c2.812,1.916-0.781,4.847-3.718,4.102
			c-1.035-0.262-2.014-0.778-2.959-1.259c-1.749-0.89-3.368-2.054-4.942-3.219c-2.827-2.096-1.14-4.579,0.701-6.782
			c1.762-2.107,2.512-4.592,4.702-6.399C59.815,3.407,59.332,3.435,59.228,3.521L59.228,3.521z"/>
	</g>
</g>
<path fill="#E1FFFE" d="M53.425,11.732c0,0-1.294,1.695-1.067,2.958c0.133,0.739,0.418,1.422,1.878,2.218"/>
<g>
	<path fill="#E1FFFE" d="M53.409,11.671c0.886,0.259,2.101,1.01,2.618,1.635c0.831,1.002,0.211,1.875-0.458,2.443
		c-0.444,0.372-1.012,0.778-1.357,1.213"/>
	<g>
		<path fill="#FFFFFF" d="M53.215,11.781c1.113,0.369,2.405,1.052,2.906,2.174c0.548,1.225-1.477,2.265-2.133,3.008
			c-0.129,0.148,0.353,0.105,0.447-0.002c0.803-0.91,2.209-1.485,2.228-2.858c0.017-1.27-2.087-2.221-3.06-2.543
			C53.467,11.516,53.029,11.72,53.215,11.781L53.215,11.781z"/>
	</g>
</g>
<g>
	<g>
		<path fill="#FFFFFF" d="M57.703,5.176c2.167,0.724,4.303,2.111,6.229,3.326c0.239,0.151,1.058-0.241,0.908-0.335
			c-1.971-1.243-4.127-2.635-6.347-3.376C58.268,4.715,57.401,5.076,57.703,5.176L57.703,5.176z"/>
	</g>
</g>
<g>
	<g>
		<path fill="#FFFFFF" d="M61.403,2.755c-0.48,0.375-0.662,0.948-0.986,1.443c-0.287,0.439-0.682,0.8-0.968,1.241
			c-0.133,0.204,0.357,0.177,0.455,0.028c0.252-0.388,0.58-0.726,0.862-1.092c0.346-0.449,0.489-1.091,0.945-1.446
			C61.971,2.728,61.568,2.627,61.403,2.755L61.403,2.755z"/>
	</g>
</g>
<g>
	<g>
		<path fill="#FFFFFF" d="M62.675,3.616c-0.464,0.352-0.691,0.886-1.05,1.329c-0.31,0.382-0.669,0.726-0.948,1.133
			c-0.117,0.172,0.365,0.117,0.447-0.002c0.26-0.38,0.587-0.713,0.887-1.061c0.371-0.43,0.586-0.988,1.047-1.336
			C63.271,3.517,62.786,3.532,62.675,3.616L62.675,3.616z"/>
	</g>
</g>
<g>
	<g>
		<path fill="#FFFFFF" d="M64.309,4.309c-0.468,0.183-0.735,0.764-0.99,1.16C62.993,5.975,62.41,6.26,62.13,6.8
			C62,7.05,62.49,7.066,62.595,6.865c0.23-0.445,0.727-0.707,1.034-1.097c0.268-0.339,0.474-0.989,0.898-1.155
			C64.835,4.493,64.564,4.208,64.309,4.309L64.309,4.309z"/>
	</g>
</g>
<g>
	<g>
		<path fill="#FFFFFF" d="M65.352,5.123c-0.315,1.018-1.398,1.625-1.981,2.477c-0.111,0.162,0.367,0.1,0.443-0.012
			c0.6-0.875,1.693-1.489,2.019-2.537C65.875,4.913,65.396,4.979,65.352,5.123L65.352,5.123z"/>
	</g>
</g>
<g>
	<g>
		<path fill="#FFFFFF" d="M74.946,13.121c5.618-5.122,12.345-1.772,18.118,0.842c7.268,3.291,14.621,2.791,21.755-0.499
			c0.299-0.138,0.034-0.425-0.221-0.308c-6.491,2.994-12.794,3.491-19.582,1.161c-2.55-0.875-4.986-2.201-7.508-3.179
			C83.161,9.452,78.195,9.62,74.62,12.88C74.379,13.101,74.757,13.293,74.946,13.121L74.946,13.121z"/>
	</g>
</g>
<g>
	<g>
		<path fill="#FFFFFF" d="M2.664,13.423C16.236,2.95,29.196,23.646,42.877,15.195c0.276-0.171,0.022-0.459-0.221-0.309
			C29.111,23.255,16.032,2.614,2.338,13.181C2.078,13.381,2.463,13.578,2.664,13.423L2.664,13.423z"/>
	</g>
</g>
</svg>
