<?xml version="1.0" encoding="utf-8"?>
<!-- Generator: Adobe Illustrator 14.0.0, SVG Export Plug-In . SVG Version: 6.00 Build 43363)  -->
<!DOCTYPE svg PUBLIC "-//W3C//DTD SVG 1.1//EN" "http://www.w3.org/Graphics/SVG/1.1/DTD/svg11.dtd">
<svg version="1.1" id="Calque_1" xmlns="http://www.w3.org/2000/svg" xmlns:xlink="http://www.w3.org/1999/xlink" x="0px" y="0px"
	 width="353.375px" height="70.5px" viewBox="0 0 353.375 70.5" enable-background="new 0 0 353.375 70.5" xml:space="preserve">
<path fill="#FFFBEE" stroke="#AF1CF4" d="M-794-35.679c0,55.232-44.764,100-100,100s-100-44.767-100-100
	c0-55.231,44.764-100,100-100S-794-90.91-794-35.679z"/>
<g id="Calque_2">
	<path fill="#FFFFFF" d="M-976.833-90c7.275-11.432,13.5-17.166,13.5-17.166s31.557,2.363,36.167,18.499
		C-921.833-70-936-59.5-936-59.5s39.167-14.166,72.333,22.001c17.371,18.942,17.167,24.333,20.333,38.5
		c1.829,8.185,1.042,14.055-0.167,24.333c-1.667,14.167-1.212,22.302-15.667,31.5c-5.5,3.5-22.333,8.5-43.833,6.167
		c-20.185-2.19-40.699-9.521-56.833-25.332c-32.075-31.432-34.833-62-32.167-84.167C-990.714-57.191-988.5-71.666-976.833-90z"/>
</g>
<g>
	<g>
		<path fill="#9F27F4" d="M-962.951-107.569c13.987,1.792,32.832,6.661,36.071,22.797c2.006,9.999-3.877,20.959-11.87,26.707
			c-0.822,0.591,1.121,0.402,1.499,0.131c8.255-5.937,13.768-16.402,12.416-26.667c-2.221-16.877-22.966-22.046-36.883-23.83
			C-962.183-108.491-963.96-107.699-962.951-107.569L-962.951-107.569z"/>
	</g>
</g>
<g>
	<g>
		<path fill="#A500E2" d="M-939.325-57.348c15.839-5.273,32.266-5.28,47.823,0.961c15.426,6.188,27.865,18.229,37.266,31.663
			c8.949,12.787,11.604,27.463,10.616,42.877c-0.854,13.309-4.648,28.621-14.687,38.07c-0.875,0.823,1.002,1.131,1.613,0.555
			c10.317-9.711,13.949-25.167,15.029-38.777c1.244-15.672-1.947-30.546-10.801-43.569c-9.449-13.897-22.376-25.512-37.917-32.104
			c-15.734-6.674-33.253-6.316-49.292-0.977C-940.832-58.267-940.504-56.956-939.325-57.348L-939.325-57.348z"/>
	</g>
</g>
<g>
	<path fill="#8B41B3" d="M-894.429-1.609C-882.5-13.167-873.5,1.375-887.438,14c-1.841,1.668-3.5,3.75-4.488,6.672"/>
	<g>
		<path fill="#8B41B3" d="M-894.041-1.526c3.069-2.799,7.828-5.933,11.523-2.355c2.09,2.023,1.804,5.499,1.214,8.031
			c-1.599,6.852-8.593,10.191-11.106,16.581c-0.127,0.323,0.839,0.206,0.967-0.117c2.617-6.656,16.01-14.894,10.657-23.677
			c-3.518-5.772-10.302-2.032-14.032,1.371C-895.234-1.312-894.277-1.31-894.041-1.526L-894.041-1.526z"/>
	</g>
</g>
<g>
	<path fill="#8B41B3" d="M-894.016-1.72C-904.167-13.167-914,4.5-900.5,13.875c3.962,2.751,6.875,2,9.017,6.849"/>
	<g>
		<path fill="#8B41B3" d="M-893.565-1.902c-4.193-4.421-10.528-5.495-13.34,0.917c-1.6,3.649-0.276,7.863,1.786,10.997
			c3.395,5.161,10.395,5.4,13.153,10.842c0.156,0.307,1.09-0.015,0.966-0.26c-1.224-2.415-2.744-3.79-5.192-4.89
			c-4.176-1.876-7.503-4.406-9.463-8.633c-1.189-2.567-1.189-5.554-0.287-8.192c2.006-5.857,8.182-3.892,11.477-0.417
			C-894.252-1.312-893.337-1.662-893.565-1.902L-893.565-1.902z"/>
	</g>
</g>
<path fill="#FFFBEE" stroke="#AF1CF4" stroke-width="0.5" d="M-508.5-42.845c0,55.232-44.764,99.999-100,99.999
	s-100-44.767-100-99.999c0-55.231,44.764-100,100-100S-508.5-98.076-508.5-42.845z"/>
<g>
	<path fill="#DFD0EF" d="M-615.78-68.763c-7.154,5.472-9.37,14.281-14.49,21.273c-2.639,3.82-6.697,7.126-6.925,11.614
		c-0.274,5.419-0.51,7.077,3.556,10.118c7.729,6.327,31.979,25.619,39.64,12.382c5.423-9.663-3.858-11.443-9.801-16.653
		c-5.048-4.651-8.419-6.666-3.701-13.413c4.16-5.853,10.257-12.268,13.521-18.68c-5.115-2.952-13.872-8.583-19.065-11.211
		C-614.243-71.22-614.015-70.394-615.78-68.763"/>
	<g>
		<path fill="#AF1CF4" d="M-616.161-68.819c-6.527,5.355-9.26,13.246-13.727,20.154c-4.056,6.273-9.854,10.981-7.513,19.264
			c1.146,4.059,8.682,8.127,11.909,10.448c5.462,3.928,11.37,7.58,17.845,9.543c3.658,1.109,7.581,1.233,10.97-0.676
			c4.149-2.338,6.135-8.477,3.418-12.44c-3.987-5.817-12.6-7.102-15.754-14.002c-1.966-4.301,4.515-10.343,6.938-13.379
			c3.127-3.921,6.188-7.857,8.575-12.282c0.039-0.072-0.046-0.121-0.092-0.147c-6.365-3.714-12.521-7.812-19.065-11.211
			c-0.246-0.128-0.747,0.046-0.869,0.286c-0.821,1.613-1.438,3.168-2.699,4.505c-0.258,0.273,0.7,0.189,0.891-0.013
			c0.801-0.85,1.313-1.549,1.799-2.581c0.914-1.943,1.804-0.872,3.351-0.007c4.252,2.377,8.374,4.99,12.54,7.512
			c2.039,1.234,3.602,1.22,1.661,4.478c-1.425,2.393-3.167,4.604-4.866,6.803c-2.652,3.43-6.097,6.786-8.08,10.669
			c-3.305,6.471,2.346,10.564,7.378,14.103c2.556,1.797,5.323,3.229,7.393,5.626c2.986,3.46,0.412,8.89-2.517,11.436
			c-5.93,5.153-16.908-1.559-22.223-4.789c-5.038-3.062-9.729-6.693-14.289-10.418c-7.475-6.105-2.227-14.431,2.534-20.427
			c5.688-7.164,7.986-16.379,15.255-22.343C-614.985-69.047-615.951-68.992-616.161-68.819L-616.161-68.819z"/>
	</g>
</g>
<path fill="#E1FFFE" d="M-634.126-41.693c0,0-3.96,5.606-3.268,9.788c0.405,2.445,1.28,4.702,5.749,7.338"/>
<g>
	<path fill="#E1FFFE" d="M-634.173-41.897c2.711,0.859,6.429,3.342,8.015,5.411c2.542,3.315,0.646,6.201-1.402,8.081
		c-1.359,1.231-3.099,2.574-4.155,4.015"/>
	<g>
		<path fill="#AF1CF4" d="M-634.367-41.787c3.623,1.312,7.632,3.727,9.052,7.505c1.511,4.021-4.467,7.292-6.624,9.891
			c-0.127,0.154,0.355,0.108,0.447-0.002c2.607-3.142,7.3-5.295,6.659-10.019c-0.5-3.691-6.084-6.488-9.146-7.597
			C-634.114-42.057-634.554-41.854-634.367-41.787L-634.367-41.787z"/>
	</g>
</g>
<g>
	<g>
		<path fill="#AF1CF4" d="M-620.615-63.647c6.712,2.418,13.262,7.04,19.131,11.041c0.447,0.305,2.082-0.476,1.82-0.654
			c-5.96-4.063-12.545-8.673-19.361-11.129C-619.453-64.543-621.18-63.851-620.615-63.647L-620.615-63.647z"/>
	</g>
</g>
<g>
	<g>
		<path fill="#AF1CF4" d="M-609.431-71.155c-1.401,1.183-1.899,3.046-2.821,4.573c-0.873,1.446-2.095,2.656-2.964,4.104
			c-0.126,0.211,0.363,0.181,0.455,0.028c0.765-1.277,1.777-2.404,2.642-3.614c1.134-1.588,1.554-3.697,3.083-4.987
			C-608.816-71.236-609.295-71.269-609.431-71.155L-609.431-71.155z"/>
	</g>
</g>
<g>
	<g>
		<path fill="#AF1CF4" d="M-605.418-68.471c-1.417,1.16-2.068,2.889-3.147,4.322c-0.949,1.262-2.055,2.411-2.901,3.749
			c-0.112,0.179,0.369,0.12,0.447-0.002c0.789-1.249,1.795-2.358,2.715-3.511c1.161-1.454,1.803-3.295,3.27-4.496
			C-604.825-68.58-605.309-68.56-605.418-68.471L-605.418-68.471z"/>
	</g>
</g>
<g>
	<g>
		<path fill="#AF1CF4" d="M-600.586-65.9c-1.31,0.541-2.051,2.331-2.725,3.479c-0.991,1.687-2.845,2.721-3.689,4.485
			c-0.122,0.256,0.366,0.271,0.465,0.065c0.754-1.575,2.404-2.492,3.354-3.933c0.764-1.16,1.444-3.226,2.814-3.792
			C-600.062-65.721-600.331-66.005-600.586-65.9L-600.586-65.9z"/>
	</g>
</g>
<g>
	<g>
		<path fill="#AF1CF4" d="M-597.123-63.643c-0.967,3.337-4.297,5.419-6.103,8.263c-0.106,0.168,0.371,0.102,0.443-0.012
			c1.82-2.867,5.164-4.957,6.14-8.324C-596.603-63.856-597.081-63.786-597.123-63.643L-597.123-63.643z"/>
	</g>
</g>
<g>
	<g>
		<path fill="#AF1CF4" d="M-594.743-61.63c6.087,2.384,15.822,4.371,21.52-0.106c8.185-6.432,9.28-18.725,4.915-27.47
			c-10.564-21.163-39.86-24.737-60.146-17.795c-19.862,6.796-37.273,24.656-44.29,44.307c-7.114,19.922-4.642,46.823,10.193,62.647
			c11.595,12.368,28.329,19.653,45.463,18.941c15.621-0.649,34.72-3.844,45.161-16.684c0.572-0.704-1.389-0.605-1.811-0.086
			c-7.649,9.406-20.376,12.833-31.876,14.583c-9.771,1.487-19.044,1.33-28.609-1.355c-11.431-3.208-20.003-9.015-27.919-17.668
			c-7.538-8.24-10.13-18.726-11.582-29.551c-3.626-27.026,9.349-51.203,31.182-66.58c13.123-9.242,28.708-12.391,44.418-9.393
			c12.75,2.433,24.289,9.611,29.122,22.054c2.838,7.307,1.021,13.543-2.793,20.048c-4.361,7.438-14.521,5.831-21.422,3.127
			C-593.842-62.854-595.591-61.962-594.743-61.63L-594.743-61.63z"/>
	</g>
</g>
<path fill="#FFFBEE" stroke="#AF1CF4" stroke-width="0.5" d="M-240.5-37.845c0,55.232-44.764,99.999-100,99.999
	s-100-44.767-100-99.999c0-55.231,44.764-100,100-100S-240.5-93.076-240.5-37.845z"/>
<circle fill="#F3E1FF" stroke="#AF1CF4" cx="-397" cy="-85.25" r="14"/>
<circle fill="#F3E1FF" stroke="#AF1CF4" cx="-339.75" cy="28" r="14"/>
<circle fill="#F3E1FF" stroke="#AF1CF4" cx="-283.5" cy="-85.5" r="14"/>
<ellipse fill="#F3E1FF" stroke="#AF1CF4" cx="-379.125" cy="-55.375" rx="7.625" ry="7.375"/>
<ellipse fill="#F3E1FF" stroke="#AF1CF4" cx="-301.125" cy="-54.875" rx="7.625" ry="7.375"/>
<ellipse fill="#F3E1FF" stroke="#AF1CF4" cx="-340.625" cy="-6.375" rx="7.625" ry="7.375"/>
<g>
	<g>
		<path fill="#AF1CF4" d="M-403.966-66.241c-1.293,14.896,4.911,31.098,19.429,37.138c0.455,0.189,2.216-0.527,1.574-0.794
			c-14.354-5.972-20.343-22.214-19.071-36.862C-402.005-67.098-403.912-66.865-403.966-66.241L-403.966-66.241z"/>
	</g>
</g>
<g>
	<g>
		<path fill="#AF1CF4" d="M-303.624-80.558c-19.788,2.723-29.956,21.062-34.094,38.923c-0.175,0.755,1.777,0.455,1.936-0.229
			c3.866-16.69,13.133-34.994,31.906-37.577C-302.927-79.572-302.29-80.742-303.624-80.558L-303.624-80.558z"/>
	</g>
</g>
<g>
	<g>
		<path fill="#AF1CF4" d="M-276.966-68.991c6.475,14.955,1.789,35.5-13.915,42.597c-1.228,0.554-0.101,1.178,0.762,0.788
			c16.276-7.355,21.932-28.087,15.085-43.903C-275.325-70.18-277.223-69.584-276.966-68.991L-276.966-68.991z"/>
	</g>
</g>
<g>
	<g>
		<path fill="#AF1CF4" d="M-322.12,21.484c8.978-2.769,11.46-12.778,11.829-21.183c0.54-12.323-7.562-20.416-16.062-28.18
			c-0.505-0.461-2.318,0.277-1.793,0.757c7.13,6.514,14.38,13.273,15.757,23.298c1.106,8.049-1.028,21.576-9.99,24.339
			C-323.519,20.867-323.274,21.84-322.12,21.484L-322.12,21.484z"/>
	</g>
</g>
<g>
	<g>
		<path fill="#AF1CF4" d="M-354.612,21.088c-5.42-5.102-9.483-10.95-10.858-18.374c-1.471-7.945,1.446-16.111,4.888-23.129
			c0.466-0.951-1.486-0.878-1.834-0.17c-3.19,6.506-5.903,13.816-5.273,21.197c0.736,8.625,5.096,15.458,11.303,21.3
			C-355.793,22.472-353.967,21.695-354.612,21.088L-354.612,21.088z"/>
	</g>
</g>
<g>
	<g>
		<path fill="#AF1CF4" d="M-379.876-82.814c7.98-1.988,17.96,3.85,21.55,10.795c3.999,7.736,5.855,15.605,6.11,24.278
			c0.018,0.586,1.953,0.21,1.932-0.518c-0.285-9.71-2.375-22.319-9.748-29.377c-4.883-4.674-13.405-7.774-20.092-6.107
			C-381.289-83.453-381.032-82.526-379.876-82.814L-379.876-82.814z"/>
	</g>
</g>
<rect x="-27.667" y="-38.5" display="none" fill="#2E3192" stroke="#FFFFFF" stroke-width="0.5" width="429.001" height="154.5"/>
<g>
	<g>
		<path fill="#34495E" stroke="#34495E" d="M177.839,7.181c-6.527,5.355-9.26,13.246-13.727,20.154
			c-4.056,6.272-9.854,10.981-7.513,19.265c1.146,4.059,8.682,8.127,11.909,10.448c5.462,3.929,11.37,7.579,17.846,9.543
			c3.658,1.109,7.58,1.233,10.97-0.677c4.149-2.338,6.135-8.477,3.418-12.439c-3.987-5.816-12.601-7.102-15.755-14.002
			c-1.965-4.301,4.516-10.343,6.938-13.38c3.128-3.921,6.189-7.857,8.576-12.282c0.039-0.072-0.046-0.121-0.092-0.147
			c-6.365-3.714-12.521-7.812-19.065-11.211c-0.245-0.128-0.747,0.046-0.868,0.286c-0.822,1.613-1.438,3.168-2.699,4.505
			c-0.258,0.273,0.699,0.189,0.891-0.013c0.801-0.85,1.312-1.549,1.798-2.581c0.915-1.943,1.806-0.872,3.353-0.007
			c4.252,2.377,8.373,4.99,12.539,7.512c2.039,1.234,3.603,1.22,1.662,4.478c-1.426,2.393-3.168,4.604-4.867,6.804
			c-2.65,3.43-6.096,6.785-8.08,10.669c-3.305,6.471,2.347,10.564,7.379,14.103c2.556,1.798,5.322,3.229,7.393,5.626
			c2.986,3.46,0.412,8.89-2.517,11.437c-5.931,5.153-16.908-1.56-22.223-4.789c-5.038-3.062-9.729-6.693-14.289-10.42
			c-7.474-6.104-2.227-14.43,2.534-20.425c5.688-7.165,7.986-16.379,15.254-22.343C179.016,6.953,178.049,7.008,177.839,7.181
			L177.839,7.181z"/>
	</g>
</g>
<path fill="#E1FFFE" d="M159.874,34.307c0,0-3.96,5.606-3.268,9.787c0.405,2.445,1.28,4.703,5.749,7.34"/>
<g>
	<path fill="#E1FFFE" stroke="#34495E" d="M159.827,34.103c2.711,0.858,6.429,3.342,8.015,5.411c2.542,3.314,0.645,6.201-1.402,8.08
		c-1.359,1.231-3.099,2.574-4.155,4.016"/>
	<g>
		<path fill="#FFFFFF" stroke="#34495E" d="M159.633,34.213c3.623,1.312,7.632,3.729,9.052,7.506
			c1.511,4.021-4.467,7.292-6.624,9.891c-0.127,0.154,0.355,0.108,0.447-0.002c2.607-3.143,7.3-5.295,6.659-10.019
			c-0.5-3.69-6.084-6.488-9.146-7.597C159.886,33.943,159.446,34.146,159.633,34.213L159.633,34.213z"/>
	</g>
</g>
<g>
	<g>
		<path fill="#34495E" stroke="#34495E" d="M173.389,12.368c6.712,2.418,13.257,7.032,19.128,11.034
			c0.465,0.316,2.125-0.46,1.816-0.67c-5.958-4.062-12.549-8.681-19.363-11.136C174.521,11.434,172.781,12.148,173.389,12.368
			L173.389,12.368z"/>
	</g>
</g>
<g>
	<g>
		<path fill="#FFFFFF" stroke="#34495E" d="M184.568,4.845c-1.4,1.183-1.898,3.046-2.82,4.573c-0.873,1.446-2.096,2.656-2.964,4.104
			c-0.126,0.211,0.362,0.181,0.454,0.028c0.766-1.277,1.777-2.404,2.643-3.614c1.135-1.588,1.555-3.697,3.083-4.987
			C185.184,4.764,184.705,4.731,184.568,4.845L184.568,4.845z"/>
	</g>
</g>
<g>
	<g>
		<path fill="#FFFFFF" stroke="#34495E" d="M188.582,7.529c-1.417,1.16-2.068,2.889-3.146,4.322
			c-0.949,1.262-2.056,2.411-2.901,3.749c-0.112,0.179,0.368,0.12,0.446-0.002c0.789-1.249,1.795-2.358,2.715-3.511
			c1.16-1.454,1.804-3.295,3.271-4.496C189.175,7.42,188.691,7.44,188.582,7.529L188.582,7.529z"/>
	</g>
</g>
<g>
	<g>
		<path fill="#FFFFFF" stroke="#34495E" d="M193.414,10.1c-1.311,0.541-2.051,2.331-2.725,3.479
			c-0.991,1.687-2.846,2.721-3.689,4.485c-0.122,0.256,0.366,0.271,0.465,0.066c0.754-1.575,2.404-2.493,3.354-3.934
			c0.765-1.16,1.445-3.226,2.814-3.792C193.938,10.279,193.669,9.995,193.414,10.1L193.414,10.1z"/>
	</g>
</g>
<g>
	<g>
		<path fill="#FFFFFF" stroke="#34495E" d="M196.877,12.357c-0.967,3.337-4.297,5.418-6.104,8.263
			c-0.105,0.168,0.371,0.102,0.443-0.012c1.82-2.867,5.164-4.957,6.141-8.324C197.396,12.144,196.919,12.214,196.877,12.357
			L196.877,12.357z"/>
	</g>
</g>
<g>
	<g>
		<path fill="#34495E" stroke="#34495E" d="M226.066,38.818c7.354-8.125,18.785-9.75,29.15-8.015
			c6.565,1.098,13.21,4.784,19.19,7.722c11.198,5.504,22.155,10.084,34.748,10.967c13.572,0.949,26.837-3.114,38.743-9.35
			c1.162-0.609,0.12-1.756-0.882-1.23c-14.949,7.83-30.927,11.096-47.598,7.658c-10.521-2.17-19.582-7.711-29.306-11.911
			c-7.041-3.042-13.123-5.689-20.832-5.979c-9.268-0.348-18.532,2.521-24.852,9.501C223.604,39.098,225.441,39.509,226.066,38.818
			L226.066,38.818z"/>
	</g>
</g>
<g>
	<g>
		<path fill="#34495E" stroke="#34495E" d="M4.653,39.984c8.815-8.536,23.515-11.978,35.232-9.985
			c11.394,1.937,21.776,8.097,31.981,13.181c18.092,9.014,38.172,15.691,56.035,2.555c1.056-0.776-0.492-1.565-1.305-0.969
			c-21.845,16.066-45.99,0.502-66.674-9.468c-9.879-4.762-20.516-8.348-31.612-7.356c-8.32,0.744-18.971,5.274-24.961,11.074
			C2.411,39.924,3.912,40.701,4.653,39.984L4.653,39.984z"/>
	</g>
</g>
</svg>
