<?xml version="1.0" encoding="utf-8"?>
<!-- Generator: Adobe Illustrator 14.0.0, SVG Export Plug-In . SVG Version: 6.00 Build 43363)  -->
<!DOCTYPE svg PUBLIC "-//W3C//DTD SVG 1.1//EN" "http://www.w3.org/Graphics/SVG/1.1/DTD/svg11.dtd">
<svg version="1.1" id="Calque_1" xmlns="http://www.w3.org/2000/svg" xmlns:xlink="http://www.w3.org/1999/xlink" x="0px" y="0px"
	 width="206.5px" height="206.5px" viewBox="0 0 206.5 206.5" enable-background="new 0 0 206.5 206.5" xml:space="preserve">
<path fill="#FFFBEE" stroke="#AF1CF4" d="M-350.5,105.321c0,55.232-44.764,100-100,100c-55.236,0-100-44.768-100-100
	c0-55.231,44.764-100,100-100C-395.264,5.321-350.5,50.09-350.5,105.321z"/>
<g id="Calque_2">
	<path fill="#FFFFFF" d="M-533.333,51c7.275-11.432,13.5-17.166,13.5-17.166s31.557,2.363,36.167,18.499
		C-478.333,71-492.5,81.5-492.5,81.5s39.167-14.166,72.333,22.001c17.371,18.942,17.167,24.333,20.333,38.5
		c1.829,8.185,1.042,14.055-0.167,24.333c-1.667,14.167-1.212,22.302-15.667,31.5c-5.5,3.5-22.333,8.5-43.833,6.167
		c-20.185-2.19-40.699-9.521-56.833-25.332c-32.075-31.432-34.833-62-32.167-84.167C-547.214,83.809-545,69.334-533.333,51z"/>
</g>
<g>
	<g>
		<path fill="#9F27F4" d="M-519.451,33.431c13.987,1.792,32.832,6.661,36.071,22.797c2.006,9.999-3.877,20.959-11.87,26.707
			c-0.822,0.591,1.121,0.402,1.499,0.131c8.255-5.937,13.768-16.402,12.416-26.667c-2.221-16.877-22.966-22.046-36.883-23.83
			C-518.683,32.509-520.46,33.301-519.451,33.431L-519.451,33.431z"/>
	</g>
</g>
<g>
	<g>
		<path fill="#A500E2" d="M-495.825,83.652c15.839-5.273,32.266-5.28,47.823,0.961c15.426,6.188,27.865,18.229,37.266,31.663
			c8.949,12.787,11.604,27.463,10.616,42.877c-0.854,13.309-4.648,28.621-14.687,38.07c-0.875,0.823,1.002,1.131,1.613,0.555
			c10.317-9.711,13.949-25.168,15.029-38.778c1.244-15.672-1.947-30.546-10.801-43.569c-9.449-13.897-22.376-25.512-37.917-32.104
			c-15.734-6.674-33.253-6.316-49.292-0.977C-497.332,82.733-497.004,84.044-495.825,83.652L-495.825,83.652z"/>
	</g>
</g>
<g>
	<path fill="#8B41B3" d="M-450.929,139.391C-439,127.833-430,142.375-443.938,155c-1.841,1.668-3.5,3.75-4.488,6.672"/>
	<g>
		<path fill="#8B41B3" d="M-450.541,139.474c3.069-2.799,7.828-5.933,11.523-2.355c2.09,2.023,1.804,5.499,1.214,8.031
			c-1.598,6.852-8.593,10.191-11.106,16.581c-0.127,0.323,0.839,0.206,0.967-0.117c2.617-6.656,16.01-14.894,10.657-23.677
			c-3.518-5.772-10.302-2.032-14.032,1.371C-451.734,139.688-450.777,139.69-450.541,139.474L-450.541,139.474z"/>
	</g>
</g>
<g>
	<path fill="#8B41B3" d="M-450.516,139.28c-10.151-11.446-19.984,6.22-6.484,15.595c3.962,2.751,6.875,2,9.017,6.849"/>
	<g>
		<path fill="#8B41B3" d="M-450.065,139.098c-4.193-4.421-10.528-5.495-13.34,0.917c-1.6,3.649-0.276,7.863,1.786,10.997
			c3.395,5.161,10.395,5.4,13.153,10.842c0.156,0.307,1.09-0.015,0.966-0.26c-1.224-2.415-2.744-3.79-5.192-4.89
			c-4.176-1.876-7.503-4.406-9.463-8.633c-1.19-2.567-1.19-5.554-0.287-8.192c2.006-5.857,8.182-3.892,11.477-0.417
			C-450.752,139.688-449.837,139.338-450.065,139.098L-450.065,139.098z"/>
	</g>
</g>
<path fill="#FFFBEE" stroke="#AF1CF4" stroke-width="0.5" d="M-65,98.155c0,55.232-44.764,100-100,100s-100-44.768-100-100
	c0-55.231,44.764-100,100-100S-65,42.924-65,98.155z"/>
<g>
	<path fill="#DFD0EF" d="M-172.28,72.237c-7.154,5.472-9.37,14.281-14.49,21.273c-2.639,3.82-6.697,7.126-6.925,11.614
		c-0.274,5.419-0.51,7.077,3.556,10.118c7.729,6.327,31.979,25.619,39.64,12.382c5.423-9.663-3.858-11.443-9.801-16.653
		c-5.048-4.651-8.419-6.666-3.701-13.413c4.16-5.853,10.257-12.268,13.521-18.68c-5.115-2.952-13.872-8.583-19.065-11.211
		C-170.743,69.78-170.515,70.606-172.28,72.237"/>
	<g>
		<path fill="#AF1CF4" d="M-172.661,72.181c-6.527,5.355-9.26,13.246-13.727,20.154c-4.056,6.273-9.854,10.981-7.513,19.264
			c1.146,4.059,8.682,8.127,11.909,10.448c5.462,3.928,11.37,7.58,17.845,9.543c3.658,1.109,7.581,1.233,10.97-0.676
			c4.149-2.338,6.135-8.477,3.418-12.44c-3.987-5.817-12.6-7.102-15.754-14.002c-1.966-4.301,4.515-10.343,6.938-13.379
			c3.127-3.921,6.188-7.857,8.575-12.282c0.039-0.072-0.046-0.121-0.092-0.147c-6.365-3.714-12.521-7.812-19.065-11.211
			c-0.246-0.128-0.747,0.046-0.869,0.286c-0.821,1.613-1.438,3.168-2.699,4.505c-0.258,0.273,0.7,0.189,0.891-0.013
			c0.801-0.85,1.313-1.549,1.799-2.581c0.914-1.943,1.804-0.872,3.351-0.007c4.252,2.377,8.374,4.99,12.54,7.512
			c2.039,1.234,3.602,1.22,1.661,4.478c-1.425,2.393-3.167,4.604-4.866,6.803c-2.652,3.43-6.097,6.786-8.08,10.669
			c-3.305,6.471,2.346,10.564,7.378,14.103c2.556,1.797,5.323,3.229,7.393,5.626c2.986,3.46,0.412,8.89-2.517,11.436
			c-5.93,5.153-16.908-1.559-22.223-4.789c-5.038-3.062-9.729-6.693-14.289-10.418c-7.475-6.105-2.227-14.431,2.534-20.427
			c5.688-7.164,7.986-16.379,15.255-22.343C-171.485,71.953-172.451,72.008-172.661,72.181L-172.661,72.181z"/>
	</g>
</g>
<path fill="#E1FFFE" d="M-190.626,99.307c0,0-3.96,5.606-3.268,9.788c0.405,2.445,1.28,4.702,5.749,7.338"/>
<g>
	<path fill="#E1FFFE" d="M-190.673,99.103c2.711,0.859,6.429,3.342,8.015,5.411c2.542,3.315,0.645,6.201-1.402,8.081
		c-1.359,1.231-3.099,2.574-4.155,4.015"/>
	<g>
		<path fill="#AF1CF4" d="M-190.867,99.213c3.623,1.312,7.632,3.727,9.052,7.505c1.511,4.021-4.467,7.292-6.624,9.891
			c-0.127,0.154,0.355,0.108,0.447-0.002c2.607-3.142,7.3-5.295,6.659-10.019c-0.5-3.691-6.084-6.488-9.146-7.597
			C-190.614,98.943-191.054,99.146-190.867,99.213L-190.867,99.213z"/>
	</g>
</g>
<g>
	<g>
		<path fill="#AF1CF4" d="M-177.115,77.353c6.712,2.418,13.262,7.04,19.131,11.041c0.447,0.305,2.082-0.476,1.82-0.654
			c-5.96-4.063-12.545-8.673-19.361-11.129C-175.953,76.457-177.68,77.149-177.115,77.353L-177.115,77.353z"/>
	</g>
</g>
<g>
	<g>
		<path fill="#AF1CF4" d="M-165.931,69.845c-1.401,1.183-1.899,3.046-2.821,4.573c-0.873,1.446-2.095,2.656-2.964,4.104
			c-0.126,0.211,0.363,0.181,0.455,0.028c0.765-1.277,1.777-2.404,2.642-3.614c1.134-1.588,1.554-3.697,3.083-4.987
			C-165.316,69.764-165.795,69.731-165.931,69.845L-165.931,69.845z"/>
	</g>
</g>
<g>
	<g>
		<path fill="#AF1CF4" d="M-161.918,72.529c-1.417,1.16-2.068,2.889-3.147,4.322c-0.949,1.262-2.055,2.411-2.901,3.749
			c-0.112,0.179,0.369,0.12,0.447-0.002c0.789-1.249,1.795-2.358,2.715-3.511c1.161-1.454,1.803-3.295,3.27-4.496
			C-161.325,72.42-161.809,72.44-161.918,72.529L-161.918,72.529z"/>
	</g>
</g>
<g>
	<g>
		<path fill="#AF1CF4" d="M-157.086,75.1c-1.31,0.541-2.051,2.331-2.725,3.479c-0.991,1.687-2.845,2.721-3.689,4.485
			c-0.122,0.256,0.366,0.271,0.465,0.065c0.754-1.575,2.404-2.492,3.354-3.933c0.764-1.16,1.444-3.226,2.814-3.792
			C-156.562,75.279-156.831,74.995-157.086,75.1L-157.086,75.1z"/>
	</g>
</g>
<g>
	<g>
		<path fill="#AF1CF4" d="M-153.623,77.357c-0.967,3.337-4.297,5.419-6.103,8.263c-0.106,0.168,0.371,0.102,0.443-0.012
			c1.82-2.867,5.164-4.957,6.14-8.324C-153.103,77.144-153.581,77.214-153.623,77.357L-153.623,77.357z"/>
	</g>
</g>
<g>
	<g>
		<path fill="#AF1CF4" d="M-151.243,79.37c6.087,2.384,15.822,4.371,21.52-0.106c8.185-6.432,9.28-18.725,4.915-27.47
			c-10.564-21.163-39.86-24.737-60.146-17.795c-19.862,6.796-37.273,24.656-44.29,44.307c-7.114,19.922-4.642,46.823,10.193,62.647
			c11.595,12.368,28.329,19.653,45.463,18.941c15.621-0.649,34.72-3.844,45.161-16.684c0.572-0.704-1.389-0.605-1.811-0.086
			c-7.649,9.406-20.376,12.833-31.876,14.583c-9.771,1.487-19.044,1.33-28.609-1.355c-11.431-3.208-20.003-9.015-27.919-17.668
			c-7.538-8.24-10.13-18.726-11.582-29.551c-3.626-27.026,9.349-51.203,31.182-66.58c13.123-9.242,28.708-12.391,44.418-9.393
			c12.75,2.433,24.289,9.611,29.122,22.054c2.838,7.307,1.021,13.543-2.793,20.048c-4.361,7.438-14.521,5.831-21.422,3.127
			C-150.342,78.146-152.091,79.038-151.243,79.37L-151.243,79.37z"/>
	</g>
</g>
<path fill="#FFFBEE" stroke="#AF1CF4" stroke-width="0.5" d="M203,103.155c0,55.232-44.764,100-100,100s-100-44.768-100-100
	c0-55.231,44.764-100,100-100S203,47.924,203,103.155z"/>
<circle fill="#F3E1FF" stroke="#AF1CF4" cx="162" cy="55.5" r="14"/>
<ellipse fill="#F3E1FF" stroke="#AF1CF4" cx="140.375" cy="84.125" rx="7.625" ry="7.375"/>
<g display="none">
	<g display="inline">
		<path fill="#AF1CF4" d="M139.876,60.442c-19.788,2.723-29.956,21.062-34.094,38.923c-0.175,0.755,1.777,0.455,1.936-0.229
			c3.866-16.69,13.133-34.994,31.906-37.577C140.573,61.428,141.21,60.258,139.876,60.442L139.876,60.442z"/>
	</g>
</g>
<g>
	<g>
		<path fill="#AF1CF4" d="M171.043,73.634c0.518,15.981-11.032,33.264-27.977,34.143c-0.703,0.037-2.05,1.158-0.752,1.091
			c18.138-0.941,31.23-18.165,30.66-35.751C172.955,72.505,171.019,72.89,171.043,73.634L171.043,73.634z"/>
	</g>
</g>
<g>
	<g>
		<path fill="#AF1CF4" d="M138.451,50.125c-16.45,4.56-30.027,21.398-25.722,38.916c0.165,0.67,2.1,0.165,1.932-0.518
			c-4.062-16.529,8.282-33.068,24.048-37.438C139.863,50.765,139.609,49.804,138.451,50.125L138.451,50.125z"/>
	</g>
</g>
<circle fill="#F3E1FF" stroke="#AF1CF4" cx="48.151" cy="55.544" r="14"/>
<ellipse transform="matrix(0.3006 -0.9538 0.9538 0.3006 -33.0074 123.9348)" fill="#F3E1FF" stroke="#AF1CF4" cx="67.998" cy="84.473" rx="7.625" ry="7.375"/>
<g>
	<g>
		<path fill="#AF1CF4" d="M68.87,51.24c15.988,4.496,28.463,21.294,24.145,38.067c-0.182,0.705,1.763,0.41,1.932-0.244
			c4.45-17.285-8.511-34.261-24.893-38.868C69.444,50.024,67.78,50.934,68.87,51.24L68.87,51.24z"/>
	</g>
</g>
<g>
	<g>
		<path fill="#AF1CF4" d="M36.477,74.532c-0.617,17.08,11.719,34.513,29.521,35.632c0.731,0.046,2.059-1.008,0.752-1.09
			c-17.159-1.079-28.931-18.495-28.342-34.787C38.437,73.492,36.5,73.895,36.477,74.532L36.477,74.532z"/>
	</g>
</g>
<circle fill="#F3E1FF" stroke="#AF1CF4" cx="103.241" cy="174.851" r="14"/>
<ellipse transform="matrix(-0.7934 0.6087 -0.6087 -0.7934 270.8447 187.6097)" fill="#F3E1FF" stroke="#AF1CF4" cx="103.583" cy="139.77" rx="7.625" ry="7.375"/>
<g>
	<g>
		<path fill="#AF1CF4" d="M83.915,164.199c-10.487-12.759-11.339-33.808,1.865-45.039c0.849-0.723-1.076-0.715-1.549-0.313
			c-13.54,11.518-12.927,32.948-2.111,46.108C82.542,165.467,84.397,164.787,83.915,164.199L83.915,164.199z"/>
	</g>
</g>
<g>
	<g>
		<path fill="#AF1CF4" d="M125.702,164.498c10.147-13.399,10.31-34.838-3.498-45.834c-0.534-0.425-2.321,0.335-1.795,0.755
			c13.575,10.81,13.485,31.85,3.494,45.04C123.378,165.153,125.325,164.994,125.702,164.498L125.702,164.498z"/>
	</g>
</g>
</svg>
